<svg width="606" height="764" viewBox="0 0 606 764" fill="none" xmlns="http://www.w3.org/2000/svg">
<path d="M0 64.3368C0 28.8046 28.6538 0 64 0H401.243C427.125 0 450.46 15.6712 460.368 39.7076L494.105 121.55C500.748 137.667 513.618 150.381 529.764 156.777L565.465 170.921C589.924 180.61 606 204.35 606 230.777V699.663C606 735.195 577.346 764 542 764H133.947C104.129 764 78.2622 743.301 71.5763 714.089L62.9101 676.227C59.1243 659.686 48.9902 645.32 34.7153 636.257L29.8244 633.151C11.2582 621.364 0 600.83 0 578.755V64.3368Z" fill="#2160CF"/>
<mask id="mask0_3436_5948" style="mask-type:alpha" maskUnits="userSpaceOnUse" x="0" y="0" width="606" height="764">
<path d="M0 64.3368C0 28.8046 28.6538 0 64 0H401.243C427.125 0 450.46 15.6712 460.368 39.7076L494.105 121.55C500.748 137.667 513.618 150.381 529.764 156.777L565.465 170.921C589.924 180.61 606 204.35 606 230.777V699.663C606 735.195 577.346 764 542 764H133.947C104.129 764 78.2622 743.301 71.5763 714.089L62.9101 676.227C59.1243 659.686 48.9902 645.32 34.7153 636.257L29.8244 633.151C11.2582 621.364 0 600.83 0 578.755V64.3368Z" fill="#16173A"/>
</mask>
<g mask="url(#mask0_3436_5948)">
<path d="M674.115 675.538C673.298 644.057 670.411 612.922 665.455 582.136C659.52 545.268 650.618 512.385 638.749 483.489C628.858 462.564 617.483 447.119 604.624 437.155C592.755 428.187 576.929 423.703 557.147 423.703C541.321 423.703 526.484 427.191 512.636 434.166C499.778 442.137 489.392 451.603 481.479 462.564C495.327 491.46 506.702 524.343 515.604 561.211C525.495 598.078 530.44 635.943 530.44 674.804C530.44 724.625 521.538 762.988 503.734 789.891C485.93 817.791 458.235 831.742 420.648 831.742L393.942 831.742L373.171 626.975C365.258 546.264 343.497 484.485 307.889 441.639C273.27 399.789 222.825 378.864 156.554 378.864C80.3917 378.864 23.0228 407.262 -15.5529 464.059C-47.7128 513.508 -66.1143 578.276 -70.7574 658.363C-72.8964 641.991 -74 625.29 -74 608.329C-74 398.578 94.7886 228.541 303 228.541C511.211 228.541 680 398.578 680 608.329C680 631.263 677.982 653.724 674.115 675.538Z" fill="#FEB100"/>
<path d="M77.9188 779.429C72.9732 755.515 70.5005 729.109 70.5005 700.213C70.5005 652.384 78.4134 617.509 94.2393 595.587C110.065 574.662 132.32 564.2 161.005 564.2C189.689 564.2 210.461 574.662 223.319 595.587C237.167 616.512 246.069 646.904 250.025 686.761L263.379 831.742L98.6903 831.742C90.7774 820.781 83.8536 803.343 77.9188 779.429Z" fill="#FEB967"/>
</g>
</svg>
